<svg width="1200" height="630" viewBox="0 0 1200 630" xmlns="http://www.w3.org/2000/svg">
  <rect width="1200" height="630" fill="#0d0d0d"/>
  <rect x="0" y="0" width="5" height="630" fill="#c0392b"/>
  <g transform="translate(72, 52)">
    <polyline points="0,18 18,18 26,4 34,32 42,18 58,18" fill="none" stroke="#c0392b" stroke-width="2.5" stroke-linejoin="round" stroke-linecap="round"/>
    <text x="68" y="26" font-family="Arial Black,sans-serif" font-size="22" font-weight="900" letter-spacing="2" fill="white">MEN<tspan fill="#c0392b">IQ</tspan><tspan fill="#555" font-size="18" letter-spacing="1">.CO</tspan></text>
  </g>
  <text x="72" y="230" font-family="Arial Black,Impact,sans-serif" font-size="92" font-weight="900" fill="white" letter-spacing="-2">WHAT'S YOUR</text>
  <text x="72" y="335" font-family="Arial Black,Impact,sans-serif" font-size="92" font-weight="900" fill="#c0392b" letter-spacing="-2">SCORE?</text>
  <text x="72" y="398" font-family="Arial,sans-serif" font-size="24" fill="#666">Most men score lower than they think.</text>
  <rect x="72" y="432" width="90" height="36" rx="18" fill="#1a1a1a" stroke="#2a2a2a" stroke-width="1"/>
  <text x="117" y="456" font-family="Arial,sans-serif" font-size="13" fill="#888" text-anchor="middle">ED</text>
  <rect x="172" y="432" width="128" height="36" rx="18" fill="#1a1a1a" stroke="#2a2a2a" stroke-width="1"/>
  <text x="236" y="456" font-family="Arial,sans-serif" font-size="13" fill="#888" text-anchor="middle">Hair Loss</text>
  <rect x="310" y="432" width="158" height="36" rx="18" fill="#1a1a1a" stroke="#2a2a2a" stroke-width="1"/>
  <text x="389" y="456" font-family="Arial,sans-serif" font-size="13" fill="#888" text-anchor="middle">Testosterone</text>
  <rect x="800" y="160" width="320" height="290" rx="20" fill="#131313" stroke="#222" stroke-width="1.5"/>
  <text x="960" y="268" font-family="Arial Black,sans-serif" font-size="76" font-weight="900" fill="#c0392b" text-anchor="middle">50K+</text>
  <text x="960" y="308" font-family="Arial,sans-serif" font-size="17" fill="#555" text-anchor="middle">men have taken this test</text>
  <rect x="850" y="330" width="220" height="1" fill="#1e1e1e"/>
  <text x="960" y="365" font-family="Arial,sans-serif" font-size="15" fill="#444" text-anchor="middle">Private</text>
  <text x="960" y="390" font-family="Arial,sans-serif" font-size="15" fill="#444" text-anchor="middle">30 seconds · Instant results</text>
  <text x="960" y="575" font-family="Arial,sans-serif" font-size="15" fill="#2a2a2a" text-anchor="middle">meniq.co</text>
</svg>